<svg width="50" height="50" viewBox="0 0 50 50" fill="none" xmlns="http://www.w3.org/2000/svg">
<g clip-path="url(#clip0_37_5763)">
<path d="M39.7461 0H10.2539C4.5999 0 0 4.5999 0 10.2539V39.7461C0 45.4001 4.5999 50 10.2539 50H39.7461C45.4001 50 50 45.4001 50 39.7461V10.2539C50 4.5999 45.4001 0 39.7461 0ZM26.4339 9.89102C28.6668 6.94795 31.7711 6.93359 31.7711 6.93359C31.7711 6.93359 32.2328 9.70049 30.0146 12.366C27.646 15.2122 24.9537 14.7464 24.9537 14.7464C24.9537 14.7464 24.4482 12.508 26.4339 9.89102ZM31.329 40.8681C29.3434 40.8681 27.7998 39.53 25.7077 39.53C23.5758 39.53 21.4601 40.918 20.0822 40.918C16.1347 40.918 11.1476 32.3727 11.1476 25.5037C11.1476 18.7455 15.3688 15.2003 19.3283 15.2003C21.9022 15.2003 23.8997 16.6847 25.2378 16.6847C26.3866 16.6847 28.5185 15.1057 31.2936 15.1057C36.0704 15.1057 37.9495 18.5047 37.9495 18.5047C37.9495 18.5047 34.2742 20.3838 34.2742 24.9434C34.2742 30.087 38.8526 31.8597 38.8526 31.8597C38.8526 31.8597 35.652 40.8681 31.329 40.8681Z" fill="black"/>
</g>
<defs>
<clipPath id="clip0_37_5763">
<rect width="50" height="50" fill="white"/>
</clipPath>
</defs>
</svg>
