<svg width="26" height="26" viewBox="0 0 26 26" fill="none" xmlns="http://www.w3.org/2000/svg">
<g clip-path="url(#clip0_37_6040)">
<path d="M25.2139 6.59395C24.5314 4.0818 21.9187 1.46859 19.4061 0.786094C17.8654 0.402187 15.8016 0.00660156 13 0C10.1984 0.00660156 8.13465 0.402187 6.59395 0.786094C4.0818 1.46859 1.46859 4.08129 0.786094 6.59395C0.402187 8.13465 0.00660156 10.1984 0 13C0.00660156 15.8016 0.402187 17.8654 0.786094 19.4061C1.46859 21.9187 4.0818 24.5314 6.59395 25.2139C8.13465 25.5978 10.1994 25.9934 13 26C15.8011 25.9934 17.8654 25.5978 19.4061 25.2139C21.9187 24.5314 24.5314 21.9187 25.2139 19.4061C25.5978 17.8654 25.9934 15.8006 26 13C25.9934 10.1984 25.5978 8.13465 25.2139 6.59395Z" fill="#E5F4D9"/>
<path d="M13 4.36719C11.2926 4.36719 9.62353 4.87349 8.20387 5.82208C6.78421 6.77066 5.67772 8.11893 5.02433 9.69637C4.37093 11.2738 4.19997 13.0096 4.53307 14.6842C4.86617 16.3588 5.68836 17.897 6.89568 19.1043C8.103 20.3116 9.64122 21.1338 11.3158 21.4669C12.9904 21.8 14.7262 21.6291 16.3036 20.9757C17.8811 20.3223 19.2293 19.2158 20.1779 17.7961C21.1265 16.3765 21.6328 14.7074 21.6328 13C21.6328 10.7104 20.7233 8.51465 19.1043 6.89568C17.4854 5.27671 15.2896 4.36719 13 4.36719Z" fill="url(#paint0_linear_37_6040)"/>
<path d="M17.9254 11.5704L12.7341 17.0203C12.5927 17.1687 12.4228 17.2871 12.2346 17.3683C12.0464 17.4496 11.8437 17.492 11.6387 17.493H11.6321C11.4283 17.493 11.2266 17.4521 11.0389 17.3727C10.8512 17.2934 10.6813 17.1771 10.5393 17.0309L7.78542 14.1938C7.63566 14.0527 7.51603 13.8827 7.43375 13.6941C7.35147 13.5055 7.30825 13.3022 7.30668 13.0965C7.30512 12.8907 7.34526 12.6868 7.42467 12.497C7.50408 12.3072 7.62111 12.1354 7.76872 11.992C7.91632 11.8487 8.09144 11.7367 8.2835 11.6629C8.47555 11.5891 8.68058 11.5549 8.8862 11.5625C9.09181 11.5701 9.29377 11.6193 9.47987 11.707C9.66597 11.7948 9.83237 11.9193 9.96902 12.0732L11.6194 13.7738L15.7169 9.47062C15.8548 9.3256 16.0199 9.20917 16.2028 9.12796C16.3857 9.04675 16.5827 9.00236 16.7828 8.99731C16.9828 8.99227 17.1819 9.02667 17.3686 9.09855C17.5553 9.17044 17.7261 9.2784 17.8711 9.41628C18.0161 9.55415 18.1325 9.71924 18.2137 9.90212C18.295 10.085 18.3393 10.2821 18.3444 10.4821C18.3494 10.6821 18.315 10.8812 18.2431 11.0679C18.1713 11.2547 18.0633 11.4254 17.9254 11.5704Z" fill="url(#paint1_linear_37_6040)"/>
</g>
<defs>
<linearGradient id="paint0_linear_37_6040" x1="19.1054" y1="19.1054" x2="6.89457" y2="6.89457" gradientUnits="userSpaceOnUse">
<stop stop-color="#13B601"/>
<stop offset="0.52" stop-color="#13B601"/>
<stop offset="1" stop-color="#CBF4B4"/>
</linearGradient>
<linearGradient id="paint1_linear_37_6040" x1="15.3681" y1="14.3873" x2="10.42" y2="9.43862" gradientUnits="userSpaceOnUse">
<stop stop-color="#CBF4B4"/>
<stop offset="0.57" stop-color="white"/>
<stop offset="1" stop-color="white"/>
</linearGradient>
<clipPath id="clip0_37_6040">
<rect width="26" height="26" fill="white"/>
</clipPath>
</defs>
</svg>
