<svg width="46" height="46" viewBox="0 0 46 46" fill="none" xmlns="http://www.w3.org/2000/svg">
<g clip-path="url(#clip0_37_5726)">
<path d="M44.2631 19.0009L25.5001 19C24.6716 19 24 19.6715 24 20.5V26.494C24 27.3223 24.6716 27.994 25.5 27.994H36.0662C34.9092 30.9967 32.7497 33.5113 29.9946 35.1091L34.4999 42.9083C41.7272 38.7285 45.9999 31.3947 45.9999 23.1849C45.9999 22.016 45.9138 21.1803 45.7415 20.2394C45.6105 19.5245 44.9898 19.0009 44.2631 19.0009Z" fill="#167EE6"/>
<path d="M23.0002 37.0001C17.8293 37.0001 13.3152 34.1748 10.8908 29.9941L3.0918 34.4894C7.06064 41.368 14.4956 46.0001 23.0002 46.0001C27.1723 46.0001 31.1089 44.8768 34.5002 42.9192V42.9085L29.9948 35.1091C27.934 36.3044 25.5491 37.0001 23.0002 37.0001Z" fill="#12B347"/>
<path d="M34.5 42.9189V42.9082L29.9946 35.1089C27.9338 36.3041 25.5491 36.9998 23 36.9998V45.9998C27.1721 45.9998 31.1089 44.8765 34.5 42.9189Z" fill="#0F993E"/>
<path d="M9.00001 23C9.00001 20.4513 9.69558 18.0667 10.8906 16.006L3.09161 11.5107C1.12323 14.8913 0 18.8173 0 23C0 27.1828 1.12323 31.1088 3.09161 34.4894L10.8906 29.9941C9.69558 27.9334 9.00001 25.5488 9.00001 23Z" fill="#FFD500"/>
<path d="M23.0002 9.00001C26.3721 9.00001 29.4694 10.1982 31.8886 12.1912C32.4854 12.6828 33.3529 12.6473 33.8996 12.1006L38.1465 7.85369C38.7668 7.23341 38.7226 6.21809 38.06 5.64327C34.0067 2.12687 28.7328 0 23.0002 0C14.4956 0 7.06064 4.63207 3.0918 11.5107L10.8908 16.0059C13.3152 11.8252 17.8293 9.00001 23.0002 9.00001Z" fill="#FF4B26"/>
<path d="M31.8884 12.1912C32.4853 12.6828 33.3528 12.6473 33.8994 12.1006L38.1463 7.85369C38.7665 7.23341 38.7223 6.21809 38.0598 5.64327C34.0065 2.12678 28.7327 0 23 0V9.00001C26.3718 9.00001 29.4692 10.1982 31.8884 12.1912Z" fill="#D93F21"/>
</g>
<defs>
<clipPath id="clip0_37_5726">
<rect width="46" height="46" fill="white"/>
</clipPath>
</defs>
</svg>
