<?xml version="1.0" encoding="utf-8"?>
<!-- Generator: Adobe Illustrator 26.0.3, SVG Export Plug-In . SVG Version: 6.00 Build 0)  -->
<svg version="1.1" id="Layer_1" xmlns="http://www.w3.org/2000/svg" xmlns:xlink="http://www.w3.org/1999/xlink" x="0px" y="0px"
	 viewBox="0 0 628 640" style="enable-background:new 0 0 628 640;" xml:space="preserve">
<style type="text/css">
	.st0{fill:none;}
	.st1{fill:#FFFFFF;}
</style>
<rect x="-88" y="-80" class="st0" width="800" height="800"/>
<g>
	<path class="st1" d="M616,260H316v120h176c-16,84-92,140-176,136c-104-4-184-84-188-188c-4-108,80-200,188-204c44,0,88,16,124,48
		l92-88C476,28,396,0,320,0C144,0,0,144,0,320s144,320,320,320c184,0,308-128,308-312C624,304,624,284,616,260z"/>
</g>
</svg>
