<svg xmlns="http://www.w3.org/2000/svg" width="22" height="22" viewBox="0 0 22 22">
  <defs>
    <style>
      .cls-1 {
        fill-rule: evenodd;
      }
    </style>
  </defs>
  <path id="Forma_1" data-name="Forma 1" class="cls-1" d="M1575.29,709h-8.48a0.819,0.819,0,0,0-.81.815v8.474a0.819,0.819,0,0,0,.81.815h8.48a0.812,0.812,0,0,0,.81-0.815v-8.474A0.812,0.812,0,0,0,1575.29,709Zm-0.82,8.475h-6.84v-6.845h6.84v6.845ZM1587.18,709h-8.47a0.812,0.812,0,0,0-.81.815v8.474a0.812,0.812,0,0,0,.81.815h8.47a0.821,0.821,0,0,0,.82-0.815v-8.474A0.821,0.821,0,0,0,1587.18,709Zm-0.81,8.475h-6.84v-6.845h6.84v6.845Zm-11.08,3.422h-8.48a0.819,0.819,0,0,0-.81.815v8.474a0.819,0.819,0,0,0,.81.815h8.48a0.812,0.812,0,0,0,.81-0.815v-8.474A0.812,0.812,0,0,0,1575.29,720.9Zm-0.82,8.474h-6.84v-6.845h6.84v6.845Zm12.71-8.474h-8.47a0.812,0.812,0,0,0-.81.815v8.474a0.812,0.812,0,0,0,.81.815h8.47a0.821,0.821,0,0,0,.82-0.815v-8.474A0.821,0.821,0,0,0,1587.18,720.9Zm-0.81,8.474h-6.84v-6.845h6.84v6.845Z" transform="translate(-1566 -709)"/>
</svg>
