<svg xmlns="http://www.w3.org/2000/svg" width="12.625" height="12.031" viewBox="0 0 12.625 12.031">
  <defs>
    <style>
      .cls-1 {
        fill-rule: evenodd;
      }
    </style>
  </defs>
  <path id="Forma_1_copy" data-name="Forma 1 copy" class="cls-1" d="M702.709,813.789c0-.046-0.008-0.08-0.011-0.1a3.778,3.778,0,0,0-3.555-3.708,3.484,3.484,0,0,0-2.777,1.416,3.342,3.342,0,0,0-2.717-1.416,3.788,3.788,0,0,0-3.557,3.719c0,0.024-.007.054-0.01,0.09a4.242,4.242,0,0,0,.119,1.33,6,6,0,0,0,1.759,3.035l4.07,3.7a0.513,0.513,0,0,0,.694,0l4.1-3.69a6.4,6.4,0,0,0,1.768-3.051A4.806,4.806,0,0,0,702.709,813.789Zm-1.145,1.087a5.329,5.329,0,0,1-1.466,2.5l-3.718,3.344-3.718-3.377a4.9,4.9,0,0,1-1.436-2.472,3.194,3.194,0,0,1-.093-1l0.007-.054a2.735,2.735,0,0,1,2.509-2.749,2.416,2.416,0,0,1,2.227,1.614,0.52,0.52,0,0,0,.971,0,2.507,2.507,0,0,1,2.3-1.614,2.735,2.735,0,0,1,2.509,2.749c0,0.032,0,.041.006,0.06A3.693,3.693,0,0,1,701.564,814.876Z" transform="translate(-690.094 -809.969)"/>
</svg>
