<svg width="8" height="8" viewBox="0 0 8 8" fill="none" xmlns="http://www.w3.org/2000/svg">
<g clip-path="url(#clip0_25_552)">
<path d="M7.93192 3.82188L5.53205 1.15535C5.48085 1.09882 5.40939 1.06683 5.33366 1.06683H3.73375C3.62869 1.06683 3.53323 1.12869 3.49003 1.22468C3.44736 1.32121 3.46496 1.43374 3.53536 1.5116L5.77471 4L3.53536 6.48787C3.46496 6.56626 3.44683 6.67879 3.49003 6.77478C3.53323 6.87131 3.62869 6.93318 3.73375 6.93318H5.33366C5.40939 6.93318 5.48085 6.90064 5.53205 6.84518L7.93192 4.17866C8.02312 4.07733 8.02312 3.92267 7.93192 3.82188Z" fill="#767676"/>
<path d="M4.46512 3.82188L2.06525 1.15535C2.01406 1.09882 1.94259 1.06683 1.86687 1.06683H0.266952C0.161891 1.06683 0.0664296 1.12869 0.023232 1.22468C-0.0194324 1.32121 -0.00183336 1.43374 0.0685628 1.5116L2.30791 4L0.0685628 6.48787C-0.00183336 6.56626 -0.0199657 6.67879 0.023232 6.77478C0.0664296 6.87131 0.161891 6.93318 0.266952 6.93318H1.86687C1.94259 6.93318 2.01406 6.90064 2.06525 6.84518L4.46512 4.17866C4.55632 4.07733 4.55632 3.92267 4.46512 3.82188Z" fill="#767676"/>
</g>
<defs>
<clipPath id="clip0_25_552">
<rect width="8" height="8" fill="white"/>
</clipPath>
</defs>
</svg>
