<?xml version="1.0" encoding="utf-8"?>
<!-- Generator: Adobe Illustrator 26.0.3, SVG Export Plug-In . SVG Version: 6.00 Build 0)  -->
<svg version="1.1" id="Layer_1" xmlns="http://www.w3.org/2000/svg" xmlns:xlink="http://www.w3.org/1999/xlink" x="0px" y="0px"
	 viewBox="6.2 0.9 14.4 24.5" style="enable-background:new 6.2 0.9 14.4 24.5;" xml:space="preserve">
<path d="M15.4,0.9c-2.8,0-5.1,2.3-5.1,5.1l-0.1,12.2c0,1.7,1.3,3,3,3c1.7,0,3-1.3,3-3l0-10.2c0-0.6-0.4-1-1-1c-0.6,0-1,0.4-1,1
	l0,10.2c0,0.6-0.4,1-1,1c-0.6,0-1-0.4-1-1V5.9c0-1.7,1.3-3,3-3c1.7,0,3,1.3,3,3l-0.1,12.2c0,2.8-2.3,5.1-5.1,5.1S8.2,21,8.2,18.1
	L8.3,1.9c0-0.6-0.4-1-1-1c-0.6,0-1,0.4-1,1L6.2,18.3c0,4,3.2,7.1,7.1,7.1c4,0,7.1-3.2,7.1-7.1L20.6,6C20.5,3.3,18.2,0.9,15.4,0.9z"
	/>
</svg>
