<svg xmlns="http://www.w3.org/2000/svg" xmlns:xlink="http://www.w3.org/1999/xlink" preserveAspectRatio="xMidYMid" width="13" height="20" viewBox="0 0 13 20">
  <defs>
    <style>
      .cls-1 {
        fill: #fff;
        fill-rule: evenodd;
      }
    </style>
  </defs>
  <path d="M5.212,0.121 C2.616,0.621 0.575,2.918 0.112,5.717 C-0.352,8.415 0.668,10.913 2.430,12.411 C4.192,14.011 5.490,16.110 6.139,18.508 L6.510,20.007 L6.974,18.508 C7.623,16.009 9.107,13.911 10.869,12.213 C12.167,11.013 13.002,9.114 13.002,7.015 C13.002,2.719 9.385,-0.679 5.212,0.121 ZM6.510,11.013 C4.470,11.013 2.801,9.215 2.801,7.015 C2.801,4.817 4.470,3.018 6.510,3.018 C8.551,3.018 10.220,4.817 10.220,7.015 C10.220,9.215 8.551,11.013 6.510,11.013 Z" class="cls-1"/>
</svg>
