<svg 
 xmlns="http://www.w3.org/2000/svg"
 xmlns:xlink="http://www.w3.org/1999/xlink"
 width="36px" height="36px">
<path fill-rule="evenodd"  fill="rgb(255, 225, 189)"
 d="M17.1000,-0.000 C27.941,-0.000 35.1000,8.059 35.1000,17.1000 C35.1000,27.941 27.941,35.1000 17.1000,35.1000 C8.059,35.1000 0.000,27.941 0.000,17.1000 C0.000,8.059 8.059,-0.000 17.1000,-0.000 Z"/>
<path fill-rule="evenodd"  fill="rgb(0, 0, 0)"
 d="M24.709,15.789 C24.705,15.743 24.701,15.709 24.698,15.685 C24.521,13.615 23.051,11.977 21.143,11.977 C20.038,11.977 19.028,12.517 18.366,13.393 C17.720,12.511 16.749,11.977 15.649,11.977 C13.748,11.977 12.281,13.604 12.092,15.696 C12.089,15.720 12.085,15.750 12.082,15.786 C12.049,16.123 12.076,16.571 12.201,17.116 C12.466,18.277 13.086,19.332 13.960,20.151 L18.030,23.847 C18.229,24.028 18.525,24.028 18.724,23.849 L22.825,20.159 C23.791,19.119 24.365,18.185 24.593,17.108 C24.707,16.567 24.734,16.123 24.709,15.789 ZM23.564,16.876 C23.385,17.724 22.908,18.499 22.098,19.372 L18.380,22.716 L14.662,19.339 C13.948,18.672 13.442,17.807 13.227,16.867 C13.129,16.440 13.109,16.112 13.133,15.868 L13.140,15.814 C13.275,14.237 14.328,13.065 15.649,13.065 C16.633,13.065 17.469,13.684 17.876,14.679 C18.057,15.123 18.666,15.123 18.847,14.679 C19.245,13.704 20.141,13.065 21.143,13.065 C22.464,13.065 23.517,14.237 23.652,15.814 C23.656,15.846 23.657,15.855 23.658,15.874 C23.676,16.104 23.655,16.443 23.564,16.876 Z"/>
</svg>