<?xml version="1.0" encoding="utf-8"?>
<!-- Generator: Adobe Illustrator 26.0.1, SVG Export Plug-In . SVG Version: 6.00 Build 0)  -->
<svg version="1.1" id="Layer_1" xmlns="http://www.w3.org/2000/svg" xmlns:xlink="http://www.w3.org/1999/xlink" x="0px" y="0px"
	 viewBox="0 0 20 20" style="enable-background:new 0 0 20 20;" xml:space="preserve">
<style type="text/css">
	.st0{fill-rule:evenodd;clip-rule:evenodd;}
</style>
<path class="st0" d="M6.8,0h-6C0.4,0,0,0.4,0,0.8v6c0,0.5,0.4,0.8,0.8,0.9h6c0.4,0,0.8-0.4,0.8-0.8v-6C7.7,0.4,7.3,0,6.8,0z M6,6
	H1.7V1.7H6V6z M11.2,2.5h8c0.5,0,0.8-0.4,0.8-0.9c0-0.4-0.4-0.8-0.8-0.8h-8c-0.5,0.1-0.8,0.5-0.7,1C10.5,2.2,10.8,2.4,11.2,2.5
	L11.2,2.5z M19.2,5.1h-8c-0.5,0-0.8,0.4-0.8,0.9c0,0.4,0.4,0.8,0.8,0.8h8C19.6,6.8,20,6.4,20,6C19.9,5.5,19.6,5.2,19.2,5.1z
	 M6.8,12.3h-6c-0.5,0-0.8,0.4-0.8,0.9v6C0,19.6,0.4,20,0.9,20h6c0.4,0,0.8-0.4,0.8-0.8v-6C7.7,12.7,7.3,12.3,6.8,12.3L6.8,12.3z
	 M6,18.3H1.7V14H6V18.3z M19.2,13.1h-8c-0.5,0-0.8,0.4-0.8,0.9c0,0.4,0.4,0.8,0.8,0.8h8c0.5,0,0.9-0.4,0.9-0.9
	C20,13.5,19.6,13.1,19.2,13.1L19.2,13.1z M19.2,17.4h-8c-0.5,0-0.8,0.4-0.8,0.9c0,0.4,0.4,0.8,0.8,0.8h8c0.5,0,0.8-0.4,0.8-0.9
	C20,17.8,19.6,17.4,19.2,17.4z"/>
</svg>
