<svg 
 xmlns="http://www.w3.org/2000/svg"
 xmlns:xlink="http://www.w3.org/1999/xlink"
 width="47px" height="56px">
<defs>
<filter id="Filter_0">
    <feFlood flood-color="rgb(255, 223, 93)" flood-opacity="1" result="floodOut" />
    <feComposite operator="atop" in="floodOut" in2="SourceGraphic" result="compOut" />
    <feBlend mode="normal" in="compOut" in2="SourceGraphic" />
</filter>

</defs>
<g filter="url(#Filter_0)">
<path fill-rule="evenodd"  fill="rgb(255, 255, 255)"
 d="M39.149,54.207 C34.940,55.362 29.383,55.997 23.500,55.997 C17.617,55.997 12.059,55.362 7.851,54.207 C2.641,52.778 -0.000,50.677 -0.000,47.963 C-0.000,46.147 1.185,44.602 3.523,43.375 C5.205,42.493 7.514,41.749 10.385,41.165 C11.568,40.926 12.723,41.690 12.963,42.873 C13.203,44.058 12.439,45.213 11.256,45.453 C6.826,46.354 5.010,47.436 4.486,47.960 C4.872,48.346 6.163,49.318 9.954,50.231 C13.678,51.127 18.489,51.622 23.500,51.622 C28.511,51.622 33.322,51.127 37.046,50.231 C40.837,49.318 42.128,48.346 42.514,47.960 C41.990,47.436 40.174,46.354 35.744,45.453 C34.561,45.213 33.796,44.058 34.037,42.873 C34.277,41.690 35.430,40.926 36.614,41.165 C39.486,41.749 41.795,42.493 43.476,43.375 C45.814,44.602 46.1000,46.147 46.1000,47.963 C46.1000,50.677 44.358,52.778 39.149,54.207 ZM32.484,37.580 C29.961,40.273 27.352,43.056 25.348,46.228 C24.947,46.862 24.250,47.248 23.500,47.248 C22.750,47.248 22.053,46.862 21.652,46.229 C19.655,43.067 17.073,40.294 14.576,37.614 C9.671,32.345 4.598,26.897 4.590,18.812 C4.596,13.741 6.563,9.004 10.127,5.467 C13.682,1.941 18.432,-0.003 23.500,-0.003 C28.571,-0.003 33.337,1.938 36.920,5.460 C40.524,9.005 42.512,13.744 42.518,18.807 C42.511,26.883 37.413,32.322 32.484,37.580 ZM23.500,4.372 C15.357,4.372 8.972,10.714 8.963,18.813 C8.969,25.172 13.050,29.555 17.775,34.630 C19.715,36.714 21.703,38.849 23.501,41.230 C25.316,38.832 27.330,36.683 29.295,34.588 C34.041,29.524 38.140,25.151 38.146,18.808 C38.137,10.850 31.567,4.372 23.500,4.372 ZM31.131,22.391 C29.939,22.196 29.130,21.071 29.325,19.879 C29.376,19.565 29.402,19.241 29.402,18.918 C29.402,15.662 26.754,13.012 23.500,13.012 C20.245,13.012 17.597,15.662 17.597,18.918 C17.597,22.176 20.245,24.825 23.500,24.825 C23.768,24.825 24.037,24.807 24.300,24.771 C25.497,24.611 26.598,25.449 26.759,26.647 C26.921,27.844 26.082,28.946 24.885,29.107 C24.429,29.168 23.962,29.200 23.500,29.200 C17.834,29.200 13.225,24.589 13.225,18.918 C13.225,13.250 17.834,8.637 23.500,8.637 C29.165,8.637 33.774,13.250 33.774,18.918 C33.774,19.477 33.729,20.036 33.640,20.584 C33.446,21.776 32.323,22.584 31.131,22.391 Z"/>
</g>
</svg>