<svg width="14" height="15" viewBox="0 0 14 15" fill="none" xmlns="http://www.w3.org/2000/svg">
<path d="M7 0.75C7.46484 0.75 7.875 1.16016 7.875 1.625V2.58203C10.0625 2.96484 11.7852 4.6875 12.168 6.875H13.125C13.5898 6.875 14 7.28516 14 7.75C14 8.24219 13.5898 8.625 13.125 8.625H12.168C11.7852 10.8398 10.0625 12.5625 7.875 12.9453V13.875C7.875 14.3672 7.46484 14.75 7 14.75C6.50781 14.75 6.125 14.3672 6.125 13.875V12.9453C3.91016 12.5625 2.1875 10.8398 1.80469 8.625H0.875C0.382812 8.625 0 8.24219 0 7.75C0 7.28516 0.382812 6.875 0.875 6.875H1.80469C2.1875 4.6875 3.91016 2.96484 6.125 2.58203V1.625C6.125 1.16016 6.50781 0.75 7 0.75ZM3.5 7.75C3.5 9.00781 4.15625 10.1562 5.25 10.7852C6.31641 11.4141 7.65625 11.4141 8.75 10.7852C9.81641 10.1562 10.5 9.00781 10.5 7.75C10.5 6.51953 9.81641 5.37109 8.75 4.74219C7.65625 4.11328 6.31641 4.11328 5.25 4.74219C4.15625 5.37109 3.5 6.51953 3.5 7.75ZM7 5.5625C7.76562 5.5625 8.47656 6 8.88672 6.65625C9.26953 7.33984 9.26953 8.1875 8.88672 8.84375C8.47656 9.52734 7.76562 9.9375 7 9.9375C6.20703 9.9375 5.49609 9.52734 5.08594 8.84375C4.70312 8.1875 4.70312 7.33984 5.08594 6.65625C5.49609 6 6.20703 5.5625 7 5.5625Z" fill="#CBCBCB"/>
</svg>
