<svg 
 xmlns="http://www.w3.org/2000/svg"
 xmlns:xlink="http://www.w3.org/1999/xlink"
 width="38px" height="38px">
<path fill-rule="evenodd"  opacity="0.102" fill="rgb(255, 107, 44)"
 d="M18.1000,-0.000 C29.493,-0.000 37.1000,8.507 37.1000,18.1000 C37.1000,29.493 29.493,37.1000 18.1000,37.1000 C8.507,37.1000 -0.000,29.493 -0.000,18.1000 C-0.000,8.507 8.507,-0.000 18.1000,-0.000 Z"/>
<path fill-rule="evenodd"  fill="rgb(255, 107, 44)"
 d="M18.212,9.121 C15.616,9.621 13.575,11.919 13.112,14.717 C12.648,17.415 13.668,19.914 15.430,21.412 C17.192,23.011 18.490,25.111 19.139,27.508 L19.510,29.008 L19.974,27.508 C20.623,25.010 22.107,22.911 23.869,21.213 C25.167,20.014 26.002,18.115 26.002,16.016 C26.002,11.720 22.385,8.321 18.212,9.121 ZM19.510,20.014 C17.470,20.014 15.801,18.215 15.801,16.016 C15.801,13.818 17.470,12.018 19.510,12.018 C21.551,12.018 23.220,13.818 23.220,16.016 C23.220,18.215 21.551,20.014 19.510,20.014 Z"/>
</svg>