<svg xmlns="http://www.w3.org/2000/svg" xmlns:xlink="http://www.w3.org/1999/xlink" preserveAspectRatio="xMidYMid" width="16.59" height="16.625" viewBox="0 0 16.59 16.625">
  <defs>
    <style>
      .cls-1 {
        fill: #fff;
        fill-rule: evenodd;
      }
    </style>
  </defs>
  <path d="M16.549,14.243 C16.476,13.892 16.133,13.667 15.782,13.740 C15.431,13.813 15.206,14.157 15.279,14.508 C15.321,14.710 15.271,14.917 15.141,15.077 C15.066,15.169 14.899,15.324 14.622,15.324 L1.951,15.324 C1.674,15.324 1.507,15.169 1.432,15.077 C1.303,14.917 1.253,14.710 1.295,14.508 C1.968,11.270 4.821,8.906 8.115,8.826 C8.172,8.829 8.229,8.830 8.287,8.830 C8.345,8.830 8.402,8.829 8.459,8.826 C10.780,8.883 12.925,10.059 14.223,11.997 C14.423,12.296 14.826,12.375 15.124,12.176 C15.421,11.976 15.501,11.572 15.301,11.274 C14.237,9.685 12.691,8.530 10.928,7.948 C12.002,7.142 12.699,5.859 12.699,4.414 C12.699,1.979 10.719,-0.002 8.287,-0.002 C5.854,-0.002 3.875,1.979 3.875,4.414 C3.875,5.860 4.572,7.144 5.647,7.950 C4.662,8.276 3.738,8.780 2.929,9.446 C1.445,10.667 0.414,12.371 0.025,14.243 C-0.098,14.830 0.049,15.432 0.426,15.896 C0.801,16.358 1.357,16.623 1.951,16.623 L14.622,16.623 C15.217,16.623 15.773,16.358 16.148,15.896 C16.525,15.432 16.671,14.830 16.549,14.243 ZM5.173,4.414 C5.173,2.694 6.570,1.297 8.287,1.297 C10.004,1.297 11.401,2.694 11.401,4.414 C11.401,6.079 10.089,7.444 8.444,7.527 C8.392,7.527 8.339,7.525 8.287,7.525 C8.234,7.525 8.182,7.527 8.130,7.527 C6.485,7.445 5.173,6.080 5.173,4.414 Z" class="cls-1"/>
</svg>
