<svg width="64" height="64" viewBox="0 0 64 64" fill="none" xmlns="http://www.w3.org/2000/svg">
<path d="M10.3235 41.2903H8.25891C5.40841 41.2903 3.09766 38.9796 3.09766 36.1291C3.09766 34.4188 4.48416 33.0323 6.19441 33.0323H10.3234L10.3235 41.2903Z" fill="#BD4150"/>
<path d="M49.5497 0H11.3562L10.293 2.0645V63H58.8401L60.9046 61.9355V11.3549L49.5497 0Z" fill="#ECEAEC"/>
<path d="M11.3555 58.8387V0C10.2154 0 9.29102 0.92425 9.29102 2.0645V61.9355C9.29102 63.0758 10.2154 64 11.3555 64H58.8394C59.9795 64 60.9039 63.0756 60.9039 61.9355H14.4523C12.7419 61.9355 11.3555 60.549 11.3555 58.8387Z" fill="#DAD8DB"/>
<path d="M60.9037 11.1776C60.9037 10.6301 60.6862 10.105 60.299 9.71775L51.1855 0.604625C50.7983 0.2175 50.2732 0 49.7257 0H49.5488V10.3226C49.5488 10.8926 50.011 11.3549 50.5811 11.3549H60.9037V11.1776Z" fill="#DAD8DB"/>
<path d="M38.1948 39.2259H6.19484C5.83284 39.2259 5.48522 39.1638 5.16222 39.0496L4.16797 40.7084V53.7501C4.16797 55.4604 5.55447 56.8468 7.26472 56.8468H38.1948L40.2593 55.7419V41.2904C40.2593 40.1502 39.3351 39.2259 38.1948 39.2259Z" fill="#E15F78"/>
<path d="M5.16216 39.0495C3.96216 38.6229 3.09766 37.4755 3.09766 36.129V54.7097C3.09766 56.4199 4.48416 57.8064 6.19441 57.8064H38.1944C39.3345 57.8064 40.2589 56.882 40.2589 55.7419H8.25891C6.54866 55.7419 5.16216 54.3554 5.16216 52.6452V39.0495Z" fill="#DB4655"/>
<path d="M32.5575 47.4063H30.5313V45.4496H32.8217C33.3923 45.4496 33.8539 44.9874 33.8539 44.4174C33.8539 43.8474 33.3922 43.3851 32.8217 43.3851H29.499C28.9284 43.3851 28.4668 43.8474 28.4668 44.4174V52.615C28.4668 53.185 28.9285 53.6473 29.499 53.6473C30.0695 53.6473 30.5313 53.185 30.5313 52.615V49.4709H32.5575C33.1282 49.4709 33.5898 49.0086 33.5898 48.4386C33.5898 47.8686 33.128 47.4063 32.5575 47.4063Z" fill="white"/>
<path d="M13.6247 43.3549H11.3253C11.0511 43.3549 10.7881 43.4642 10.5945 43.6582C10.4018 43.8519 10.2937 44.1141 10.2937 44.3871H10.293V52.6452C10.293 53.2152 10.7547 53.6775 11.3252 53.6775C11.8957 53.6775 12.3575 53.2152 12.3575 52.6452V50.085C12.8206 50.0825 13.3297 50.0802 13.6246 50.0802C15.5036 50.0802 17.0328 48.5716 17.0328 46.7179C17.033 44.8634 15.5037 43.3549 13.6247 43.3549ZM13.6247 48.0156C13.3323 48.0156 12.8283 48.0176 12.3677 48.0201C12.3657 47.5439 12.3607 45.4194 12.3607 45.4194H13.6248C14.3537 45.4194 14.9686 46.0141 14.9686 46.7177C14.9686 47.4214 14.3536 48.0156 13.6247 48.0156Z" fill="white"/>
<path d="M22.2819 43.4768H20.0127C19.7385 43.4768 19.4755 43.5857 19.2819 43.7797C19.0884 43.9737 18.9795 44.2368 18.9805 44.5111L18.9865 48.5071C18.9865 49.6214 18.9966 52.5267 18.9966 52.5267C18.9976 52.8004 19.1075 53.0629 19.3021 53.2561C19.4946 53.4476 19.7567 53.5554 20.029 53.5554H20.033C20.033 53.5554 21.7155 53.5489 22.3666 53.5378C24.791 53.4949 26.5511 51.3831 26.5511 48.5162C26.551 45.5019 24.8352 43.4768 22.2819 43.4768ZM22.3302 51.4732C22.0349 51.4782 21.5237 51.4828 21.0581 51.4853C21.0551 50.5403 21.0511 49.1884 21.0511 48.5069L21.0471 45.5412H22.282C24.3807 45.5412 24.4866 48.0191 24.4866 48.5159C24.4865 49.9692 23.8201 51.4471 22.3302 51.4732Z" fill="white"/>
<path d="M24.7435 34.9204C23.9471 34.9204 23.2274 34.506 22.7214 33.7243C21.9694 32.564 22.167 31.25 23.2627 30.1189C24.3676 28.9778 26.6286 27.9042 29.3495 27.0277C30.1982 25.4279 31.0622 23.5554 31.8696 21.4853C32.3465 20.262 32.7315 19.1592 33.04 18.1728C31.6801 15.6798 30.8716 13.3588 31.0864 11.8517C31.3051 10.3224 32.4472 9.46153 34.1449 9.55528C34.6489 9.58253 35.8515 9.84565 36.1419 11.6974C36.3636 13.1133 35.9906 15.402 35.2426 18.0029C36.658 20.3905 38.5985 22.9479 40.4966 24.9107C43.3656 24.7358 45.797 24.9449 47.0197 25.6828C47.9774 26.2604 48.3534 27.2024 48.0257 28.2019C47.4895 29.8355 46.1941 30.5839 44.557 30.2024C43.179 29.8808 41.4714 28.6777 39.7395 27.0074C36.9542 27.2524 33.676 27.8194 30.8 28.6652C29.0832 31.7463 27.2274 34.145 25.669 34.7408C25.3545 34.8614 25.044 34.9204 24.7435 34.9204ZM24.4532 32.6024C24.6256 32.8675 24.7204 32.862 24.7647 32.8569C25.422 32.7899 26.5167 31.6553 27.7667 29.7374C26.9401 30.0918 26.1992 30.4758 25.5762 30.8882C24.0137 31.9229 24.3454 32.434 24.4532 32.6024ZM42.6387 26.871C43.5207 27.5605 44.3404 28.0318 45.0259 28.1922C45.5611 28.3167 45.8364 28.2532 46.0641 27.559C45.7597 27.0973 44.4644 26.8755 42.6387 26.871ZM34.4401 20.506C33.7677 22.4204 32.9451 24.4027 32.047 26.2605C33.9815 25.7747 36.0207 25.392 37.9684 25.1492C36.7092 23.7223 35.4925 22.1195 34.4401 20.506ZM33.9431 11.5777C33.2102 11.5777 33.172 11.8524 33.1296 12.1427C33.0217 12.9053 33.2899 13.9899 33.8191 15.2404C34.2859 13.012 34.1911 11.8332 33.9642 11.5777C33.9572 11.5777 33.9502 11.5777 33.9431 11.5777Z" fill="#E15F78"/>
</svg>
