<svg width="66" height="66" viewBox="0 0 66 66" fill="none" xmlns="http://www.w3.org/2000/svg">
<path d="M11 5.5H55C58.0388 5.5 60.5 7.96125 60.5 11V55C60.5 58.0388 58.0388 60.5 55 60.5H11C7.96125 60.5 5.5 58.0388 5.5 55V11C5.5 7.96125 7.96125 5.5 11 5.5Z" fill="#9BA4B4"/>
<path d="M30.25 23.375C30.25 27.1728 27.1728 30.25 23.375 30.25C19.5773 30.25 16.5 27.1728 16.5 23.375C16.5 19.5773 19.5773 16.5 23.375 16.5C27.1728 16.5 30.25 19.5773 30.25 23.375Z" fill="#495B7A"/>
<path d="M55 38.5L46.75 30.25L33 44L27.5 38.5L11 55H55V38.5Z" fill="#495B7A"/>
</svg>
