<svg 
 xmlns="http://www.w3.org/2000/svg"
 xmlns:xlink="http://www.w3.org/1999/xlink"
 width="129px" height="129px">
<path fill-rule="evenodd"  stroke="rgb(255, 255, 255)" stroke-width="2px" stroke-dasharray="8, 4" stroke-linecap="butt" stroke-linejoin="miter" fill-opacity="0" fill="rgb(234, 76, 137)"
 d="M63.1000,0.999 C98.794,0.999 126.1000,29.206 126.1000,63.1000 C126.1000,98.793 98.794,126.1000 63.1000,126.1000 C29.206,126.1000 0.1000,98.793 0.1000,63.1000 C0.1000,29.206 29.206,0.999 63.1000,0.999 Z"/>
<path fill-rule="evenodd"  fill="rgb(255, 255, 255)"
 d="M63.606,12.812 C92.094,12.812 115.187,35.905 115.187,64.393 C115.187,92.881 92.094,115.974 63.606,115.974 C35.119,115.974 12.025,92.881 12.025,64.393 C12.025,35.905 35.119,12.812 63.606,12.812 Z"/>
<path fill-rule="evenodd"  stroke-width="3px" stroke="rgb(0, 0, 0)" fill-opacity="0" fill="rgb(234, 76, 137)"
 d="M56.1000,51.999 C61.999,55.983 67.000,59.969 71.1000,63.953 C71.989,63.984 71.978,64.014 71.967,64.045 C66.978,68.029 61.988,72.015 56.1000,75.999 C56.1000,67.999 56.1000,59.998 56.1000,51.999 Z"/>
</svg>