<svg width="14" height="14" viewBox="0 0 14 14" fill="none" xmlns="http://www.w3.org/2000/svg">
<path d="M13.0092 6.66752C13.1112 6.49084 13.1476 6.28385 13.112 6.08298C13.0764 5.88211 12.971 5.70024 12.8145 5.5694L11.688 4.6244C11.6113 4.55923 11.5595 4.46959 11.5414 4.37065L11.2855 2.92033C11.2507 2.71951 11.146 2.53749 10.9898 2.40654C10.8336 2.2756 10.6361 2.2042 10.4323 2.20502H8.96014C8.8594 2.20435 8.762 2.16879 8.68452 2.1044L7.55577 1.15721C7.4002 1.02634 7.20344 0.95459 7.00014 0.95459C6.79685 0.95459 6.60009 1.02634 6.44452 1.15721L5.31577 2.1044C5.23829 2.16879 5.14089 2.20435 5.04014 2.20502H3.56796C3.36416 2.2042 3.16665 2.2756 3.01048 2.40654C2.85431 2.53749 2.74957 2.71951 2.71483 2.92033L2.45889 4.37065C2.44074 4.46959 2.38897 4.55923 2.31233 4.6244L1.18577 5.5694C1.02926 5.70024 0.923921 5.88211 0.888308 6.08298C0.852696 6.28385 0.88909 6.49084 0.991082 6.66752L1.72827 7.94283C1.77852 8.02936 1.79635 8.13093 1.77858 8.2294L1.52264 9.67971C1.48736 9.88014 1.52368 10.0866 1.62526 10.263C1.72683 10.4393 1.88719 10.5743 2.07827 10.6444L3.46296 11.1475C3.55784 11.1829 3.63748 11.2502 3.68827 11.3378L4.42327 12.6131C4.52519 12.7892 4.68578 12.9238 4.87694 12.9934C5.0681 13.063 5.27765 13.0631 5.46889 12.9938L6.85358 12.4885C6.94854 12.4557 7.05175 12.4557 7.14671 12.4885L8.5314 12.9938C8.7226 13.0637 8.93233 13.0638 9.12362 12.9942C9.31492 12.9245 9.47548 12.7896 9.57702 12.6131L10.312 11.3378C10.3628 11.2502 10.4425 11.1829 10.5373 11.1475L11.922 10.6444C12.1131 10.5743 12.2735 10.4393 12.375 10.263C12.4766 10.0866 12.5129 9.88014 12.4776 9.67971L12.2217 8.2294C12.2039 8.13093 12.2218 8.02936 12.272 7.94283L13.0092 6.66752ZM9.52015 5.65908L6.64577 8.53565C6.53046 8.65052 6.37432 8.71502 6.21155 8.71502C6.04878 8.71502 5.89265 8.65052 5.77733 8.53565L4.48014 7.23627C4.45989 7.21602 4.44383 7.19198 4.43287 7.16551C4.42191 7.13905 4.41627 7.11069 4.41627 7.08205C4.41627 7.05341 4.42191 7.02505 4.43287 6.99859C4.44383 6.97213 4.45989 6.94809 4.48014 6.92783C4.5004 6.90758 4.52444 6.89152 4.5509 6.88056C4.57736 6.8696 4.60572 6.86395 4.63436 6.86395C4.663 6.86395 4.69137 6.8696 4.71783 6.88056C4.74429 6.89152 4.76833 6.90758 4.78858 6.92783L6.08796 8.22502C6.10398 8.24163 6.12318 8.25483 6.14441 8.26385C6.16565 8.27287 6.18848 8.27752 6.21155 8.27752C6.23462 8.27752 6.25746 8.27287 6.27869 8.26385C6.29993 8.25483 6.31913 8.24163 6.33514 8.22502L9.21171 5.35065C9.23168 5.3299 9.25563 5.31339 9.28213 5.30212C9.30863 5.29084 9.33713 5.28503 9.36593 5.28503C9.39472 5.28503 9.42323 5.29084 9.44973 5.30212C9.47622 5.31339 9.50018 5.3299 9.52015 5.35065C9.54042 5.37088 9.55651 5.39492 9.56749 5.42138C9.57847 5.44785 9.58412 5.47622 9.58412 5.50487C9.58412 5.53351 9.57847 5.56188 9.56749 5.58835C9.55651 5.61481 9.54042 5.63885 9.52015 5.65908Z" fill="url(#paint0_linear_33_2350)"/>
<defs>
<linearGradient id="paint0_linear_33_2350" x1="0.874926" y1="7.00046" x2="13.1254" y2="7.00046" gradientUnits="userSpaceOnUse">
<stop stop-color="#FFA68D"/>
<stop offset="1" stop-color="#FD3A84"/>
</linearGradient>
</defs>
</svg>
