<svg 
 xmlns="http://www.w3.org/2000/svg"
 xmlns:xlink="http://www.w3.org/1999/xlink"
 width="57px" height="56px">
<defs>
<filter id="Filter_0">
    <feFlood flood-color="rgb(255, 223, 93)" flood-opacity="1" result="floodOut" />
    <feComposite operator="atop" in="floodOut" in2="SourceGraphic" result="compOut" />
    <feBlend mode="normal" in="compOut" in2="SourceGraphic" />
</filter>

</defs>
<g filter="url(#Filter_0)">
<path fill-rule="evenodd"  fill="rgb(255, 255, 255)"
 d="M55.916,47.982 C55.670,46.800 54.512,46.040 53.329,46.286 C52.146,46.534 51.386,47.691 51.633,48.873 C51.775,49.555 51.606,50.253 51.169,50.790 C50.917,51.100 50.353,51.622 49.419,51.622 L6.690,51.622 C5.756,51.622 5.192,51.100 4.940,50.790 C4.503,50.254 4.335,49.555 4.476,48.873 C6.747,37.968 16.366,30.004 27.475,29.737 C27.667,29.744 27.860,29.747 28.055,29.747 C28.249,29.747 28.444,29.744 28.637,29.737 C36.462,29.923 43.694,33.886 48.074,40.417 C48.747,41.421 50.106,41.688 51.109,41.015 C52.113,40.343 52.381,38.984 51.708,37.980 C48.118,32.628 42.906,28.736 36.962,26.779 C40.584,24.064 42.932,19.736 42.932,14.872 C42.932,6.670 36.258,-0.003 28.055,-0.003 C19.851,-0.003 13.177,6.670 13.177,14.872 C13.177,19.740 15.528,24.069 19.154,26.784 C15.832,27.878 12.715,29.580 9.987,31.823 C4.984,35.937 1.506,41.676 0.193,47.982 C-0.219,49.958 0.274,51.988 1.545,53.550 C2.810,55.105 4.685,55.997 6.690,55.997 L49.419,55.997 C51.424,55.997 53.299,55.105 54.564,53.550 C55.835,51.988 56.328,49.958 55.916,47.982 ZM17.553,14.872 C17.553,9.081 22.264,4.372 28.055,4.372 C33.845,4.372 38.556,9.081 38.556,14.872 C38.556,20.483 34.131,25.081 28.586,25.359 C28.409,25.355 28.232,25.354 28.055,25.354 C27.878,25.354 27.701,25.355 27.525,25.359 C21.980,25.082 17.553,20.484 17.553,14.872 Z"/>
</g>
</svg>