<svg width="18" height="18" viewBox="0 0 18 18" fill="none" xmlns="http://www.w3.org/2000/svg">
<g clip-path="url(#clip0_35_3346)">
<path d="M13.0642 16.0379C11.8688 16.7305 10.4802 17.1242 9.0001 17.1242C4.51416 17.1242 0.875488 13.4855 0.875488 8.99961C0.875488 4.51367 4.51416 0.875 9.0001 0.875C10.4802 0.875 11.8688 1.27227 13.0642 1.96133C10.6349 3.36406 9.0001 5.99023 9.0001 8.99961C9.0001 12.009 10.6349 14.6316 13.0642 16.0379Z" fill="#BCF4AB"/>
<path d="M17.1389 5.15023C16.4041 3.59281 15.2405 2.28499 13.7745 1.36741C11.7354 0.0947584 9.32016 -0.309538 6.97875 0.231868C4.63735 0.769758 2.64399 2.19007 1.37133 4.22913C0.0951613 6.2682 -0.309136 8.67991 0.232271 11.0248C0.773677 13.3662 2.19399 15.3596 4.22954 16.6323C5.66391 17.5287 7.30922 18.0034 8.99321 18.0034H9.10219C10.7791 17.9823 12.4104 17.4971 13.8237 16.6041C14.235 16.344 14.3545 15.8026 14.0944 15.3912C13.8342 14.9799 13.2928 14.8604 12.8815 15.1205C11.7459 15.8412 10.4311 16.2315 9.0811 16.2491C7.69594 16.2666 6.34243 15.8834 5.16118 15.1487C3.51938 14.1221 2.3768 12.519 1.94438 10.6346C1.50844 8.75023 1.8354 6.8096 2.86196 5.16781C4.97836 1.78226 9.45727 0.748665 12.8428 2.86507C14.0241 3.60335 14.9592 4.65452 15.5498 5.90609C16.1264 7.12601 16.3514 8.47952 16.2002 9.81546C16.1475 10.2971 16.492 10.733 16.9772 10.7858C17.4588 10.8385 17.8948 10.494 17.9475 10.0088C18.1338 8.34593 17.8526 6.66546 17.1389 5.15023Z" fill="black"/>
<path d="M11.904 5.94834L7.66768 10.1882L6.09619 8.6167C5.75166 8.27217 5.19619 8.27217 4.85166 8.6167C4.50713 8.96123 4.50713 9.5167 4.85166 9.86123L7.04541 12.055C7.21768 12.2272 7.44268 12.3116 7.66768 12.3116C7.89268 12.3116 8.11768 12.2272 8.28994 12.055L13.1485 7.19287C13.4931 6.84834 13.4931 6.29287 13.1485 5.94834C12.804 5.60381 12.2485 5.60381 11.904 5.94834Z" fill="black"/>
</g>
<defs>
<clipPath id="clip0_35_3346">
<rect width="18" height="18" fill="white"/>
</clipPath>
</defs>
</svg>
