<svg width="74" height="74" viewBox="0 0 74 74" fill="none" xmlns="http://www.w3.org/2000/svg">
<path d="M73.9998 32.9889C73.9998 32.4214 73.3912 32.0618 72.894 32.3355L58.3935 40.319L57.0508 45.6158L58.3935 50.9211L66.1966 56.56L73.9998 59.5132V32.9889Z" fill="#454D58"/>
<path d="M58.3935 53.6063L72.894 61.5898C73.3912 61.8635 73.9998 61.5038 73.9998 60.9363V59.5131L58.3935 50.9209L57.0508 52.3872L58.3935 53.6063Z" fill="#3C434C"/>
<path d="M5.61504 37.0498L1.06534 34.8946C0.570465 34.6601 0 35.021 0 35.5687V45.59L2.80752 45.6027L5.61504 42.9301L6.95773 40.2123L5.61504 37.0498Z" fill="#A6AEC4"/>
<path d="M1.06534 47.7709L5.61504 45.6155L6.95773 44.2728L5.61504 42.9301L0 45.5901V47.0967C0 47.6444 0.570465 48.0053 1.06534 47.7709Z" fill="#959DB0"/>
<path d="M11.5419 42.9301L8.57856 44.2728L5.61523 42.9301V37.0498H11.5419L12.8847 40.2123L11.5419 42.9301Z" fill="#454D58"/>
<path d="M5.61523 45.6156H11.5419L12.8847 44.2728L11.5419 42.9301H5.61523V45.6156Z" fill="#3C434C"/>
<path d="M43.8234 30.3839C50.5859 30.3839 56.8207 23.846 56.8207 17.3184C56.1485 10.7333 50.5859 5.59564 43.8234 5.59564C37.0608 5.59564 31.4984 10.7334 30.8262 17.3184C30.826 24.1391 37.0608 30.3839 43.8234 30.3839Z" fill="#454D58"/>
<path d="M21.9488 30.3839C27.8406 30.3839 31.007 25.4819 31.007 21.2267C30.3574 16.8061 26.5498 13.4124 21.9488 13.4124C17.3477 13.4124 13.5403 16.8061 12.8906 21.2267C12.8905 25.8931 16.2316 30.3839 21.9488 30.3839Z" fill="#454D58"/>
<path d="M15.564 67.0617H54.37C57.736 67.0617 58.393 63.9178 58.393 61.696V35.7498C58.393 33.5279 56.5918 31.7267 54.37 31.7267H15.564C13.3422 31.7267 11.541 33.5279 11.541 35.7498V61.696C11.541 63.9178 12.5647 67.0617 15.564 67.0617Z" fill="#A6AEC4"/>
<path d="M24.4881 53.1332H45.4482C46.9402 53.1332 46.9402 51.1224 46.9402 50.2985V40.7769C46.9402 39.9529 46.2721 39.285 45.4482 39.285H24.4881C23.6641 39.285 22.9961 39.9531 22.9961 40.7769V50.2985C22.9961 51.1224 22.9961 53.1332 24.4881 53.1332Z" fill="#BED8FB"/>
<path d="M43.823 21.904C47.2085 21.904 48.2085 19.2861 48.2085 17.3183C47.6344 15.441 45.8884 14.0753 43.823 14.0753C41.7577 14.0753 40.0117 15.4408 39.4375 17.3183C39.4375 19.3504 40.5807 21.904 43.823 21.904Z" fill="#A6AEC4"/>
<path d="M19.3672 21.2267C19.3672 22.3608 19.7558 24.1391 21.95 24.1391C24.3042 24.1391 24.5329 22.2134 24.5329 21.2267C24.0473 20.2944 23.0738 19.6569 21.95 19.6569C20.8262 19.6569 19.8528 20.2946 19.3672 21.2267Z" fill="#A6AEC4"/>
<path d="M54.37 65.7189H15.564C13.3422 65.7189 11.541 63.9177 11.541 61.6959V64.3814C11.541 66.6033 13.3422 68.4044 15.564 68.4044H54.37C56.5918 68.4044 58.393 66.6033 58.393 64.3814V61.6959C58.393 63.9177 56.5918 65.7189 54.37 65.7189Z" fill="#959DB0"/>
<path d="M45.4479 51.7903H24.4879C23.664 51.7903 22.9961 51.1224 22.9961 50.2983V52.9838C22.9961 53.8078 23.6641 54.4758 24.4879 54.4758H45.448C46.272 54.4758 46.94 53.8078 46.94 52.9838V50.2983C46.9399 51.1224 46.2718 51.7903 45.4479 51.7903Z" fill="#A3CAF7"/>
<path d="M21.9502 29.0412C17.349 29.0412 13.5416 25.6475 12.892 21.2269C12.8275 21.6652 12.793 22.1133 12.793 22.5696C12.793 27.627 16.8927 31.7268 21.9502 31.7268C27.0075 31.7268 31.1074 27.627 31.1074 22.5696C31.1074 22.1133 31.0728 21.6652 31.0085 21.2269C30.3586 25.6474 26.5512 29.0412 21.9502 29.0412Z" fill="#3C434C"/>
<path d="M21.9496 22.7965C20.8258 22.7965 19.8524 22.1589 19.3668 21.2269C19.1574 21.629 19.0371 22.0849 19.0371 22.5696C19.0371 24.1781 20.3411 25.482 21.9496 25.482C23.558 25.482 24.862 24.1781 24.862 22.5696C24.862 22.0848 24.7419 21.6288 24.5325 21.2269C24.0467 22.1589 23.0733 22.7965 21.9496 22.7965Z" fill="#959DB0"/>
<path d="M43.8233 29.0412C37.0607 29.0412 31.4982 23.9034 30.826 17.3184C30.7809 17.7598 30.7578 18.2077 30.7578 18.6611C30.7578 25.877 36.6074 31.7267 43.8234 31.7267C51.0394 31.7267 56.8891 25.8771 56.8891 18.6611C56.8891 18.2077 56.8659 17.7598 56.8208 17.3184C56.1483 23.9034 50.5858 29.0412 43.8233 29.0412Z" fill="#3C434C"/>
<path d="M43.822 20.5613C41.7567 20.5613 40.0107 19.1958 39.4365 17.3183C39.3066 17.7431 39.2363 18.1937 39.2363 18.661C39.2363 21.1936 41.2894 23.2467 43.822 23.2467C46.3546 23.2467 48.4077 21.1936 48.4077 18.661C48.4077 18.1937 48.3373 17.7429 48.2075 17.3183C47.6333 19.1958 45.8874 20.5613 43.822 20.5613Z" fill="#959DB0"/>
<path d="M40.9942 59.5279C40.375 59.5279 39.873 60.0299 39.873 60.649C39.873 61.2682 40.375 61.7702 40.9942 61.7702H43.7909C44.41 61.7702 44.912 61.2682 44.912 60.649C44.912 60.0297 44.41 59.5279 43.7909 59.5279H40.9942Z" fill="#B3E59F"/>
<path d="M33.5645 59.5279C32.9453 59.5279 32.4434 60.0299 32.4434 60.649C32.4434 61.2682 32.9453 61.7702 33.5645 61.7702H36.3613C36.9805 61.7702 37.4824 61.2682 37.4824 60.649C37.4824 60.0297 36.9805 59.5279 36.3613 59.5279H33.5645Z" fill="#DF667C"/>
<path d="M26.1348 59.5279C25.5156 59.5279 25.0137 60.0299 25.0137 60.649C25.0137 61.2682 25.5156 61.7702 26.1348 61.7702H28.9315C29.5507 61.7702 30.0526 61.2682 30.0526 60.649C30.0526 60.0297 29.5507 59.5279 28.9315 59.5279H26.1348Z" fill="#EACC73"/>
</svg>
